<svg width="118" height="31" viewBox="0 0 118 31" fill="none" xmlns="http://www.w3.org/2000/svg">
<path opacity="0.5" fill-rule="evenodd" clip-rule="evenodd" d="M15.991 6.89508C16.1558 6.16365 15.6964 5.43716 14.965 5.27241C14.2335 5.10765 13.5071 5.56703 13.3423 6.29845C12.7383 8.98027 11.956 10.6906 10.7765 11.8944C9.60027 13.095 7.87607 13.9468 5.05951 14.5813C4.32809 14.746 3.86872 15.4725 4.03348 16.2039C4.19824 16.9353 4.92474 17.3947 5.65616 17.2299C8.71873 16.5401 11.0213 15.5241 12.7159 13.7945C14.4071 12.0684 15.3397 9.78647 15.991 6.89508ZM24.2736 17.2299C25.005 17.0651 25.4644 16.3386 25.2996 15.6072C25.1349 14.8758 24.4083 14.4164 23.6769 14.5812C20.7855 15.2325 18.5037 16.1651 16.7775 17.8563C15.048 19.5509 14.032 21.8534 13.3421 24.916C13.1773 25.6475 13.6367 26.3739 14.3681 26.5387C15.0995 26.7035 15.826 26.2441 15.9908 25.5127C16.6253 22.6961 17.4771 20.972 18.6776 19.7957C19.8815 18.6162 21.5918 17.834 24.2736 17.2299Z" fill="black"/>
<path fill-rule="evenodd" clip-rule="evenodd" d="M15.9908 6.29845C15.826 5.56703 15.0995 5.10765 14.3681 5.27241C13.6367 5.43716 13.1773 6.16365 13.3421 6.89508C13.9933 9.78647 14.9259 12.0684 16.6172 13.7945C18.3117 15.5241 20.6143 16.5401 23.6769 17.2299C24.4083 17.3947 25.1349 16.9353 25.2996 16.2039C25.4644 15.4725 25.005 14.746 24.2736 14.5813C21.457 13.9468 19.7329 13.095 18.5566 11.8944C17.3771 10.6906 16.5949 8.98027 15.9908 6.29845ZM5.65616 14.5812C4.92474 14.4164 4.19824 14.8758 4.03348 15.6072C3.86872 16.3386 4.32809 17.0651 5.05951 17.2299C7.87607 17.8643 9.60027 18.7161 10.7765 19.9167C11.956 21.1205 12.7383 22.8309 13.3423 25.5127C13.5071 26.2441 14.2335 26.7035 14.965 26.5387C15.6964 26.3739 16.1558 25.6475 15.991 24.9161C15.3397 22.0247 14.4071 19.7427 12.7159 18.0165C11.0213 16.2871 8.71873 15.2711 5.65616 14.5812Z" fill="black"/>
<path d="M36.848 25H32.648V6.24H36.848V13.716H40.404L44.8 6.24H49.56L43.904 15.536L49.476 25H44.66L40.46 17.776H36.848V25ZM55.0431 25.28C50.1991 25.28 47.9871 22.452 47.9871 18C47.9871 13.492 50.6751 10.636 55.0711 10.636C59.2991 10.636 61.7911 13.156 61.7911 16.824C61.7911 17.608 61.6791 18.42 61.5951 18.896H51.9351C52.0191 20.856 52.8031 21.64 55.0991 21.64C56.7791 21.64 57.5071 21.276 57.5071 20.408V20.24H61.6511V20.52C61.6511 23.516 59.0751 25.28 55.0431 25.28ZM54.9311 14.08C52.9151 14.08 52.1311 14.864 51.9631 16.348H57.7591C57.8431 14.892 56.8911 14.08 54.9311 14.08ZM66.9756 25H62.8036V10.916H66.6956V13.38H66.8636C67.6196 11.784 69.1316 10.636 71.5956 10.636C75.2636 10.636 76.8316 13.072 76.8316 16.068V25H72.6316V16.908C72.6316 14.948 71.9876 14.248 69.8596 14.248C67.8436 14.248 66.9756 14.892 66.9756 17.02V25ZM91.2351 25H77.4871V21.78L83.1151 16.516L85.1311 14.836L85.1031 14.528L83.1151 14.584H77.9071V10.916H90.8151V14.444L84.9351 19.624L83.1711 21.08L83.1991 21.36L84.9351 21.332H91.2351V25ZM98.0393 25.28C93.5033 25.28 90.8153 22.424 90.8153 17.972C90.8153 13.492 93.5033 10.636 98.0393 10.636C102.547 10.636 105.179 13.492 105.179 17.972C105.179 22.424 102.547 25.28 98.0393 25.28ZM98.0393 21.584C100.307 21.584 101.091 20.688 101.091 17.972C101.091 15.228 100.307 14.332 98.0393 14.332C95.7433 14.332 94.9593 15.228 94.9593 17.972C94.9593 20.688 95.7433 21.584 98.0393 21.584Z" fill="#171717"/>
<path d="M110.936 7.7429V4.07386H112.75C112.956 4.07386 113.151 4.12026 113.337 4.21307C113.526 4.30256 113.678 4.43679 113.794 4.61577C113.914 4.79474 113.973 5.01515 113.973 5.27699C113.973 5.53883 113.912 5.76255 113.789 5.94815C113.667 6.13044 113.508 6.26965 113.312 6.36577C113.12 6.46188 112.918 6.50994 112.706 6.50994H111.438V5.84872H112.487C112.616 5.84872 112.735 5.80066 112.845 5.70455C112.954 5.60843 113.009 5.46591 113.009 5.27699C113.009 5.07812 112.954 4.93892 112.845 4.85938C112.735 4.77983 112.621 4.74006 112.502 4.74006H111.841V7.7429H110.936ZM113.238 6.03764L114.103 7.7429H113.108L112.288 6.03764H113.238ZM112.363 9.9304C111.812 9.9304 111.297 9.82765 110.816 9.62216C110.336 9.41667 109.913 9.13163 109.549 8.76705C109.184 8.40246 108.899 7.97988 108.694 7.49929C108.488 7.0187 108.385 6.50331 108.385 5.95312C108.385 5.40294 108.488 4.88755 108.694 4.40696C108.899 3.92637 109.184 3.50379 109.549 3.1392C109.913 2.77462 110.336 2.48958 110.816 2.28409C111.297 2.0786 111.812 1.97585 112.363 1.97585C112.913 1.97585 113.428 2.0786 113.909 2.28409C114.389 2.48958 114.812 2.77462 115.176 3.1392C115.541 3.50379 115.826 3.92637 116.032 4.40696C116.237 4.88755 116.34 5.40294 116.34 5.95312C116.34 6.50331 116.237 7.0187 116.032 7.49929C115.826 7.97988 115.541 8.40246 115.176 8.76705C114.812 9.13163 114.389 9.41667 113.909 9.62216C113.428 9.82765 112.913 9.9304 112.363 9.9304ZM112.363 8.91122C112.906 8.91122 113.402 8.77865 113.849 8.51349C114.297 8.24834 114.653 7.89205 114.918 7.4446C115.186 6.99384 115.321 6.49669 115.321 5.95312C115.321 5.40956 115.186 4.91406 114.918 4.46662C114.653 4.01586 114.297 3.65791 113.849 3.39276C113.402 3.1276 112.906 2.99503 112.363 2.99503C111.816 2.99503 111.319 3.1276 110.871 3.39276C110.424 3.65791 110.066 4.01586 109.797 4.46662C109.532 4.91406 109.4 5.40956 109.4 5.95312C109.4 6.49669 109.532 6.99219 109.797 7.43963C110.066 7.88707 110.424 8.24503 110.871 8.51349C111.319 8.77865 111.816 8.91122 112.363 8.91122Z" fill="#171717"/>
</svg>
